<?xml version="1.0" encoding="UTF-8" standalone="no"?>
<!-- Created with Inkscape (http://www.inkscape.org/) -->

<svg
   xmlns:dc="http://purl.org/dc/elements/1.1/"
   xmlns:cc="http://creativecommons.org/ns#"
   xmlns:rdf="http://www.w3.org/1999/02/22-rdf-syntax-ns#"
   xmlns:svg="http://www.w3.org/2000/svg"
   xmlns="http://www.w3.org/2000/svg"
   xmlns:sodipodi="http://sodipodi.sourceforge.net/DTD/sodipodi-0.dtd"
   xmlns:inkscape="http://www.inkscape.org/namespaces/inkscape"
   width="192.01787mm"
   height="158.20064mm"
   viewBox="0 0 680.37827 560.55344"
   id="svg4824"
   version="1.1"
   inkscape:version="0.91 r13725"
   sodipodi:docname="pirate_ship1.svg">
  <defs
     id="defs4826" />
  <sodipodi:namedview
     id="base"
     pagecolor="#ffffff"
     bordercolor="#666666"
     borderopacity="1.0"
     inkscape:pageopacity="0.0"
     inkscape:pageshadow="2"
     inkscape:zoom="0.35"
     inkscape:cx="1386.6177"
     inkscape:cy="-419.72329"
     inkscape:document-units="px"
     inkscape:current-layer="layer1"
     showgrid="false"
     fit-margin-top="0"
     fit-margin-left="0"
     fit-margin-right="0"
     fit-margin-bottom="0"
     inkscape:window-width="1855"
     inkscape:window-height="1056"
     inkscape:window-x="65"
     inkscape:window-y="24"
     inkscape:window-maximized="1" />
  <metadata
     id="metadata4829">
    <rdf:RDF>
      <cc:Work
         rdf:about="">
        <dc:format>image/svg+xml</dc:format>
        <dc:type
           rdf:resource="http://purl.org/dc/dcmitype/StillImage" />
        <dc:title></dc:title>
      </cc:Work>
    </rdf:RDF>
  </metadata>
  <g
     inkscape:label="Layer 1"
     inkscape:groupmode="layer"
     id="layer1"
     transform="translate(1505.9034,447.91451)">
    <g
       transform="translate(-2075.4204,-467.63305)"
       id="g149">
      <path
         style="fill:#4e4a45;stroke:#4e4a45;stroke-width:0.30000001"
         inkscape:connector-curvature="0"
         d="m 1034.62,26.72 c 0.2,-2.43 0.37,-5.14 2.46,-6.78 1.01,1.63 1.17,3.54 1.24,5.41 -1.24,0.48 -2.45,0.97 -3.7,1.37 z"
         id="path151" />
      <path
         style="fill:#d6a297;stroke:#d6a297;stroke-width:0.30000001"
         inkscape:connector-curvature="0"
         d="m 1002.97,23.82 c 5.96,0.48 11.63,-1.74 17.55,-1.82 0.02,4.52 -0.38,9.02 -0.58,13.53 3.01,0.58 6.04,1.45 8.4901,3.4 -2.42,-0.5 -4.8301,-1.03 -7.2001,-1.67 -1.37,4.17 -1,8.59 -0.43,12.86 -0.55,0.06 -1.64,0.17 -2.19,0.23 0.02,-4.71 0.6,-9.39 0.64,-14.09 -5.78,0.22 -11.56,0.2 -17.32,-0.1 -0.6,-4.15 0.2,-8.29 1.04,-12.34 m 14.33,-0.31 c -4.26,0.9 -8.68,1.02 -12.89,1.89 -1.65,2.43 -2.15,6.29 -0.69,8.89 4.45,1.15 9.35,0.86 13.91,0.36 1.71,-2.54 1.33,-5.81 1.42,-8.72 0.01,-0.98 -0.45,-2.72 -1.75,-2.42 z"
         id="path153" />
      <path
         style="fill:#566e85;stroke:#566e85;stroke-width:0.30000001"
         inkscape:connector-curvature="0"
         d="m 1020.52,22 c 5.39,-0.94 9.12,3.93 14.1,4.72 1.25,-0.4 2.46,-0.89 3.7,-1.37 -0.98,6.08 -1.1599,12.26 -2.0499,18.36 -2.7001,-1.46 -5.3,-3.08 -7.84,-4.78 -2.4501,-1.95 -5.48,-2.82 -8.4901,-3.4 0.2,-4.51 0.6,-9.01 0.58,-13.53 z"
         id="path155" />
      <path
         style="fill:#f49981;stroke:#f49981;stroke-width:0.30000001"
         inkscape:connector-curvature="0"
         d="m 1017.3,23.51 c 1.3,-0.3 1.76,1.44 1.75,2.42 -0.09,2.91 0.29,6.18 -1.42,8.72 -4.56,0.5 -9.46,0.79 -13.91,-0.36 -1.46,-2.6 -0.96,-6.46 0.69,-8.89 4.21,-0.87 8.63,-0.99 12.89,-1.89 z"
         id="path157" />
      <path
         style="fill:#556f86;stroke:#556f86;stroke-width:0.30000001"
         inkscape:connector-curvature="0"
         d="m 1001.93,36.16 c 5.76,0.3 11.54,0.32 17.32,0.1 -0.04,4.7 -0.62,9.38 -0.64,14.09 -4.28,0.75 -8.22,2.83 -12.54,3.32 -3.1,0.37 -5.51,-2.03 -6.84,-4.55 3.06,-3.55 3.95,-8.48 2.7,-12.96 z"
         id="path159" />
      <path
         style="fill:#f39a80;stroke:#f39a80;stroke-width:0.30000001"
         inkscape:connector-curvature="0"
         d="m 1021.23,37.26 c 2.37,0.64 4.78,1.17 7.2001,1.67 2.5399,1.7 5.1399,3.32 7.84,4.78 -0.3101,3.5 -0.28,7.11 -1.41,10.46 -0.21,0.58 -0.61,1.74 -0.8199,2.32 -1.17,0.07 -2.3,0.17 -3.4401,0.2 -4.11,-0.67 -6.58,-4.34 -9.8,-6.57 -0.5701,-4.27 -0.9401,-8.69 0.4299,-12.86 z"
         id="path161" />
      <path
         style="fill:#493724;stroke:#493724;stroke-width:0.30000001"
         inkscape:connector-curvature="0"
         d="m 1034.04,56.49 c 0.21,-0.58 0.61,-1.74 0.8199,-2.32 -0.59,3.88 -0.6,7.82 -0.78,11.73 1.8,0.46 3.52,1.17 5.13,2.13 -1.59,1.28 -3.6,1.51 -5.5399,1.67 -1.4801,16.4 -3.12,32.79 -4.4,49.2 -3.0701,-0.58 -6.18,-0.95 -9.28,-1.15 2.26,-16.21 5.61,-32.25 8,-48.43 -1.84,-0.75 -4.93,-0.58 -5.12,-3.16 2,-0.42 4.04,-0.68 6.09,-0.86 0.4501,-2.89 1.04,-5.75 1.64,-8.61 1.14,-0.03 2.27,-0.13 3.44,-0.2 z"
         id="path163" />
      <path
         style="fill:#413121;stroke:#413121;stroke-width:0.30000001"
         inkscape:connector-curvature="0"
         d="m 1010.11,118.24 c 3.2,-0.9 6.58,-0.56 9.88,-0.49 3.1,0.2 6.21,0.57 9.28,1.15 2.95,0.48 5.96,1.15 8.45,2.91 0.06,6.08 -4.13,11.49 -10.1,12.74 -0.25,3.43 -0.6,6.85 -0.97,10.26 -3.15,-0.81 -6.27,-1.7 -9.4301,-2.43 l -1.23,-0.29 c 0.3,-2.79 0.68,-5.57 1.3,-8.3 -5.3199,-3.02 -8.4399,-9.65 -7.1799,-15.55 z"
         id="path165" />
      <path
         style="fill:#97897e;stroke:#97897e;stroke-width:0.30000001"
         inkscape:connector-curvature="0"
         d="m 968.25,134.31 c 1.87,-0.76 3.8,-1.94 5.91,-1.22 10.66,2.42 21.34,4.84 32.03,7.23 3.65,0.79 7.26,1.91 11.03,2.06 3.16,0.73 6.28,1.62 9.4301,2.43 15.71,3.98 31.66,7.05 47.3099,11.29 -3.9199,4.53 -7.6599,9.34 -9.7,15.03 -6.1,15.89 -5.28,33.39 -3.13,49.97 1.4301,11.31 5.25,22.19 10.5699,32.24 2.14,4.57 4.9501,8.85 6.53,13.68 -16.41,-11.18 -34,-20.58 -52.1,-28.67 0.05,3.16 -0.7,6.28 -0.51,9.46 -0.4,-0.19 -1.2,-0.55 -1.59,-0.73 l 1.25,0.41 c 0.2,-3.21 0.39,-6.43 0.51,-9.65 -3.61,-1.8 -7.21,-3.61 -10.95,-5.13 -0.19,0.61 -0.59,1.82 -0.78,2.42 0,-0.79 -0.01,-2.37 -0.01,-3.16 -2.89,-1.38 -5.72,-2.89 -8.66,-4.13 -1.4,-0.36 -2.81,-0.65 -4.2,-0.94 -0.65,4.59 -0.98,9.22 -0.92,13.86 l -0.28,-0.06 c -0.87,-4.97 0.46,-9.92 0.77,-14.87 -22.18,-9.86 -44.66,-19.06 -67.52,-27.21 -5.26,-1.84 -10.61,-3.82 -16.25,-3.88 -10.77,-0.15 -21.54,3.57 -29.96,10.28 1.59,-13.26 10.62,-24.16 19.96,-33.1 C 924.77,155.6 946.29,143.98 968.25,134.31 Z"
         id="path167" />
      <path
         style="fill:#f1eec9;stroke:#f1eec9;stroke-width:0.30000001"
         inkscape:connector-curvature="0"
         d="m 1089.88,160.74 c 1.12,-3.29 1.5599,-8.05 5.12,-9.54 2.79,1.36 4.1899,4.59 7.03,5.96 2.03,0.23 4.08,0.23 6.14,0.39 -0.4701,0.16 -1.42,0.49 -1.89,0.66 -1.11,3.33 -1.53,6.97 -3.26,10.04 -5.38,-0.39 -8.57,-5.31 -13.14,-7.51 z"
         id="path169" />
      <path
         style="fill:#4a3723;stroke:#4a3723;stroke-width:0.30000001"
         inkscape:connector-curvature="0"
         d="m 1125.14,158.14 c 0.22,-1.08 0.79,-2.05 1.2999,-3.02 -0.25,11.96 -2.72,23.78 -5.0099,35.5 -1.7101,5.28 -0.6101,10.85 -1.27,16.27 -2.28,25.22 -6.49,50.2 -10.2101,75.23 -3.3999,-1.65 -7.58,-1.95 -10.35,-4.68 4.63,-23.69 8.59,-47.57 14.78,-70.93 1.35,-6.64 5.4301,-12.44 5.38,-19.39 0.52,-4.22 1.1899,-8.41 1.9,-12.6 0.34,-2.05 0.6899,-4.11 1.09,-6.15 0.7101,-3.43 1.4501,-6.85 2.3901,-10.23 z"
         id="path171" />
      <path
         style="fill:#ef9b81;stroke:#ef9b81;stroke-width:0.30000001"
         inkscape:connector-curvature="0"
         d="m 1108.17,157.55 c 0.73,-0.14 2.1899,-0.41 2.9199,-0.55 -0.6699,4 -1.8099,7.9 -2.97,11.77 4.88,0.17 9.75,-0.29 14.63,-0.4 -0.4,2.04 -0.75,4.1 -1.09,6.15 -5.16,0.66 -10.3401,1.16 -15.51,1.65 -0.9501,3.58 -1.9401,7.16 -2.9601,10.72 -1.5599,-0.02 -3.11,0 -4.6499,0.04 0.88,-3.8 2.0699,-7.54 2.35,-11.45 -5.1801,-1.13 -9.89,-3.9 -12.77,-8.42 0.5699,-2.11 1.17,-4.21 1.76,-6.32 4.5699,2.2 7.76,7.12 13.14,7.51 1.73,-3.07 2.15,-6.71 3.26,-10.04 0.4701,-0.17 1.4201,-0.5 1.8901,-0.66 z"
         id="path173" />
      <path
         style="fill:#f2edc9;stroke:#f2edc9;stroke-width:0.30000001"
         inkscape:connector-curvature="0"
         d="m 1111.09,157 c 4.1,-0.46 8.3101,-0.04 12.03,1.86 0.5,-0.18 1.51,-0.54 2.02,-0.72 -0.9401,3.38 -1.6801,6.8 -2.39,10.23 -4.88,0.11 -9.75,0.57 -14.63,0.4 1.16,-3.87 2.3,-7.77 2.97,-11.77 z"
         id="path175" />
      <path
         style="fill:#f2eec9;stroke:#f2eec9;stroke-width:0.30000001"
         inkscape:connector-curvature="0"
         d="m 698.21,164.26 c 4.43,-0.94 9.15,1.25 12.79,3.7 1.97,2.96 4.72,5.28 6.78,8.15 -1.1,-0.6 -2.1801,-1.2 -3.26,-1.8 -0.47,1.66 -0.94,3.32 -1.4,4.98 -4.74,-2.99 -9.48,-6.39 -15.31,-6.67 -0.04,-2.67 -1.65,-6.22 0.4,-8.36 z"
         id="path177" />
      <path
         style="fill:#f2edc9;stroke:#f2edc9;stroke-width:0.30000001"
         inkscape:connector-curvature="0"
         d="m 1088.12,167.06 c 2.88,4.52 7.59,7.29 12.77,8.42 -0.28,3.91 -1.47,7.65 -2.35,11.45 -4.4501,-0.89 -8.37,-3.72 -11.1001,-7.27 -1.6999,-4.04 -0.1599,-8.52 0.6801,-12.6 z"
         id="path179" />
      <path
         style="fill:#ef9b82;stroke:#ef9b82;stroke-width:0.30000001"
         inkscape:connector-curvature="0"
         d="m 697.81,172.62 c 5.83,0.28 10.57,3.68 15.31,6.67 0.46,-1.66 0.93,-3.32 1.4,-4.98 1.08,0.6 2.16,1.2 3.26,1.8 0.41,0.24 1.24,0.72 1.66,0.96 0.12,3.15 -2.56,7.59 0.82,9.66 3.6,2.65 8.19,1.59 12.16,0.54 0.18,2.49 0.43,4.97 0.73,7.45 -3.23,0.6 -6.58,1.56 -9.86,0.81 -2.28,-0.75 -4.24,-2.17 -6.2599,-3.38 -1.05,3.74 -1.8701,7.54 -2.75,11.33 -1.59,-1.6 -3.41,-3.15 -4.21,-5.33 0.42,-3.86 2.14,-7.74 1.4,-11.62 -3.6,-3.41 -8.48,-4.99 -13.25,-5.86 C 697.87,178 697.73,175.31 697.81,172.62 Z"
         id="path181" />
      <path
         style="fill:#473828;stroke:#473828;stroke-width:0.30000001"
         inkscape:connector-curvature="0"
         d="m 732.24,173.61 c 1.52,0.86 1.61,2.67 2,4.18 1.88,9.34 2.7,18.86 3.24,28.36 1.17,8.24 1.95,16.55 2.71,24.84 -0.05,0.59 -0.14,1.76 -0.19,2.35 -0.66,0.02 -1.99,0.06 -2.66,0.08 -1.13,-10.09 -2.06,-20.2 -3.02,-30.3 -0.45,-2.79 -0.85,-5.59 -1.17,-8.4 -0.3,-2.48 -0.55,-4.96 -0.73,-7.45 -0.29,-3.7 -0.41,-7.4 -0.28,-11.11 0.02,-0.64 0.08,-1.91 0.1,-2.55 z"
         id="path183" />
      <path
         style="fill:#f2eeca;stroke:#f2eeca;stroke-width:0.30000001"
         inkscape:connector-curvature="0"
         d="m 1106.15,176.17 c 5.1699,-0.49 10.35,-0.99 15.51,-1.65 -0.7101,4.19 -1.38,8.38 -1.9,12.6 -0.54,-1.64 -1.99,-2.52 -3.6801,-2.32 -4.37,0.16 -8.5199,1.87 -12.89,2.09 1.0201,-3.56 2.0101,-7.14 2.9601,-10.72 z"
         id="path185" />
      <path
         style="fill:#f2eec9;stroke:#f2eec9;stroke-width:0.30000001"
         inkscape:connector-curvature="0"
         d="m 719.44,177.07 c 4.04,1.45 9.38,2.69 12.7,-0.91 -0.13,3.71 -0.01,7.41 0.28,11.11 -3.97,1.05 -8.56,2.11 -12.16,-0.54 -3.38,-2.07 -0.7,-6.51 -0.82,-9.66 z"
         id="path187" />
      <path
         style="fill:#f2edc9;stroke:#f2edc9;stroke-width:0.30000001"
         inkscape:connector-curvature="0"
         d="m 698.22,180.67 c 4.77,0.87 9.65,2.45 13.25,5.86 0.7401,3.88 -0.98,7.76 -1.4,11.62 -1.5,-1.9 -2.77,-4 -4.46,-5.75 -1.83,-1.38 -4.27,-1.32 -6.42,-1.75 -0.86,-3.26 -1.06,-6.63 -0.97,-9.98 z"
         id="path189" />
      <path
         style="fill:#f2edc9;stroke:#f2edc9;stroke-width:0.30000001"
         inkscape:connector-curvature="0"
         d="m 717.03,192.15 c 2.02,1.21 3.98,2.63 6.2599,3.38 3.28,0.75 6.63,-0.21 9.86,-0.81 0.3199,2.81 0.72,5.61 1.17,8.4 -6.69,0.2 -13.54,2.47 -20.14,0.79 l 0.1,-0.43 c 0.8801,-3.79 1.7001,-7.59 2.7501,-11.33 z"
         id="path191" />
      <path
         style="fill:#f2edca;stroke:#f2edca;stroke-width:0.30000001"
         inkscape:connector-curvature="0"
         d="m 1193.76,218.86 c 1.01,-3.91 -1.03,-8.92 2.15,-12.07 3.51,-0.52 6.64,1.51 9.76,2.79 l -0.1801,0.43 c -0.89,2.18 -1.95,4.28 -3.15,6.3 -2.46,-1.08 -4.99,-1.94 -7.59,-2.53 0.08,1.34 0.23,2.67 0.46,4 1.6901,1.34 3.7101,2.19 5.63,3.19 -0.65,2.21 -1.2999,4.43 -1.9299,6.64 -3.0801,-1.12 -6.64,-1.29 -9.1901,-3.55 1.3101,-1.76 2.8001,-3.38 4.0401,-5.2 z"
         id="path193" />
      <path
         style="fill:#ea9e85;stroke:#ea9e85;stroke-width:0.30000001"
         inkscape:connector-curvature="0"
         d="m 1202.34,216.31 c 1.2001,-2.02 2.26,-4.12 3.15,-6.3 0.6801,0.32 2.05,0.95 2.74,1.26 -0.7,2.41 -1.37,4.83 -2,7.26 2.9,0.72 5.9,1 8.9,0.78 -0.33,1.47 -0.62,2.95 -0.87,4.44 -3.33,0.29 -6.67,0.05 -9.92,-0.62 -0.8099,2.33 -1.63,4.66 -2.4399,7 -1,-0.84 -2.01,-1.68 -2.99,-2.52 0.63,-2.21 1.2799,-4.43 1.9299,-6.64 -1.9199,-1 -3.9399,-1.85 -5.63,-3.19 -0.23,-1.33 -0.38,-2.66 -0.46,-4 2.6,0.59 5.13,1.45 7.59,2.53 z"
         id="path195" />
      <path
         style="fill:#f3edc8;stroke:#f3edc8;stroke-width:0.30000001"
         inkscape:connector-curvature="0"
         d="m 1208.23,211.27 c 2.74,1.43 5.8201,1.97 8.85,1.14 -0.87,2.23 -1.4299,4.57 -1.95,6.9 -3,0.22 -6,-0.06 -8.9,-0.78 0.63,-2.43 1.3,-4.85 2,-7.26 z"
         id="path197" />
      <path
         style="fill:#4a3724;stroke:#4a3724;stroke-width:0.30000001"
         inkscape:connector-curvature="0"
         d="m 1217.08,212.41 c 0.2101,-0.42 0.63,-1.26 0.8401,-1.68 0.5499,7.23 -1.8101,14.33 -3.24,21.36 -0.01,11.75 -1.9301,23.38 -3.41,35.01 -2.02,13.69 -4.05,27.38 -6.39,41.02 0.23,0.5 0.6801,1.5 0.91,2 l -0.25,0.46 c -2.6901,-2.24 -6,-3.52 -9.51,-3.32 4.14,-22.18 8.0499,-44.45 13.73,-66.31 0.8,-3.79 2.78,-7.22 3.54,-11.01 0.3099,-2.06 0.59,-4.13 0.96,-6.19 0.25,-1.49 0.54,-2.97 0.87,-4.44 0.5199,-2.33 1.0799,-4.67 1.9499,-6.9 z"
         id="path199" />
      <path
         style="fill:#f6ecc9;stroke:#f6ecc9;stroke-width:0.30000001"
         inkscape:connector-curvature="0"
         d="m 1204.34,223.13 c 3.25,0.67 6.5901,0.91 9.92,0.62 -0.37,2.06 -0.65,4.13 -0.96,6.19 -3.8,0.28 -7.63,1.05 -11.4,0.19 0.81,-2.34 1.63,-4.67 2.44,-7 z"
         id="path201" />
      <path
         style="fill:#4b3721;stroke:#4b3721;stroke-width:0.30000001"
         inkscape:connector-curvature="0"
         d="m 1005.39,227.84 c 2.94,1.24 5.77,2.75 8.66,4.13 0,0.79 0.01,2.37 0.01,3.16 -0.52,2.72 -0.93,5.46 -1.53,8.17 -1.96,5.36 -1.46,11.13 -1.52,16.73 0,3.32 -0.69,6.71 0.3,9.96 1.19,5.27 3.34,10.4 3.32,15.89 -7.34,-2.21 -14.76,-4.11 -22.1,-6.29 1.35,-3.72 4.29,-6.45 6.25,-9.81 -0.44,-0.34 -1.3101,-1.01 -1.75,-1.35 1.06,-0.32 2.14,-0.65 3.22,-0.99 1.87,-8.06 2.08,-16.44 4.35,-24.41 -1.23,-0.71 -2.44,-1.44 -3.67,-2.11 0.79,0.09 2.37,0.27 3.15,0.36 0.37,-4.49 0.68,-8.98 1.31,-13.44 z"
         id="path203" />
      <path
         style="fill:#97897e;stroke:#97897e;stroke-width:0.30000001"
         inkscape:connector-curvature="0"
         d="m 740.19,230.99 c 0.34,0.87 0.7,1.74 1.06,2.62 16.34,0.45 32.69,0.66 49.01,1.49 -2.81,1.69 -6.08,3.46 -7,6.88 -1.9,6.37 0.54,12.98 2.87,18.89 6.12,14.63 14.02,28.42 21.88,42.16 2.21,3.67 4.47,7.31 6.55,11.07 1.77,3.42 4.08,6.55 5.68,10.07 -23.65,-12.09 -47.32,-24.43 -72.41,-33.35 -0.07,0.58 -0.22,1.74 -0.3,2.32 -0.25,-0.96 -0.5,-1.92 -0.75,-2.88 -1.35,-0.43 -2.69,-0.87 -4.03,-1.3 -0.08,1.36 -0.13,2.73 -0.16,4.09 -0.23,-1.41 -0.4301,-2.82 -0.6,-4.22 -12.98,-5.04 -27.01,-8.52 -41.01,-6.88 -13.12,1.42 -25.62,6.94 -35.93,15.1 -2.57,1.97 -4.8,4.38 -7.53,6.14 10.77,-18.17 23.52,-35.41 31.39,-55.18 1.8701,-4.83 3.44,-10.05 2.26,-15.25 15.39,-0.43 30.78,0.5 46.17,0.66 0.67,-0.02 2,-0.06 2.66,-0.08 0.05,-0.59 0.14,-1.76 0.19,-2.35 z"
         id="path205" />
      <path
         style="fill:#413122;stroke:#413122;stroke-width:0.30000001"
         inkscape:connector-curvature="0"
         d="m 1015.43,243.75 c -0.04,-2.24 -0.03,-4.48 0.03,-6.72 0.09,2.33 0.12,4.65 0.15,6.98 2.83,0.94 5.64,1.97 8.42,3.07 0.39,0.18 1.1899,0.54 1.59,0.73 1.75,0.78 3.46,1.69 5.01,2.85 -3.8199,8.42 -10.2,16.49 -19.32,19.33 -0.99,-3.25 -0.3,-6.64 -0.3,-9.96 0.06,-5.6 -0.44,-11.37 1.52,-16.73 0.73,0.11 2.17,0.34 2.9,0.45 z"
         id="path207" />
      <path
         style="fill:#413121;stroke:#413121;stroke-width:0.30000001"
         inkscape:connector-curvature="0"
         d="m 985.81,241.86 c 4.22,-1.98 9.52,-1.39 14.18,-1.16 l 0.28,0.06 0.66,0.16 c 1.23,0.67 2.44,1.4 3.67,2.11 -2.27,7.97 -2.48,16.35 -4.35,24.41 -1.08,0.34 -2.16,0.67 -3.22,0.99 -9.77,-4.45 -12.01,-16.89 -11.22,-26.57 z"
         id="path209" />
      <path
         style="fill:#cebd9f;stroke:#cebd9f;stroke-width:0.30000001"
         inkscape:connector-curvature="0"
         d="m 872.6,248.83 c 1.78,0.22 3.59,0.48 5.37,0.85 -1.2,0.24 -2.39,0.5 -3.5699,0.79 17.41,6.05 35.21,10.93 52.88,16.16 55.0699,15.99 110.36,31.22 165.6799,46.3 0.05,0.54 0.15,1.62 0.2001,2.16 -0.27,1.55 -0.5601,3.09 -0.8401,4.63 -5.97,-1.64 -12.09,-2.65 -18.13,-3.99 -22.2599,-5.19 -44.49,-10.53 -66.52,-16.62 -4.99,-1.34 -9.95,-2.8 -14.96,-4.05 0.1,0.45 0.3,1.35 0.4,1.8 -0.65,-0.76 -1.29,-1.53 -1.9,-2.3 -0.55,-0.1 -1.64,-0.29 -2.19,-0.39 -0.43,0.22 -1.27,0.65 -1.69,0.86 l -0.84,0.47 c 0.02,-0.56 0.06,-1.67 0.08,-2.23 -1.89,-0.53 -3.77,-1.07 -5.64,-1.62 -0.52,0.44 -1.55,1.32 -2.06,1.77 -0.07,-0.56 -0.2,-1.67 -0.27,-2.22 -31.45,-9.85 -63.45,-18.63 -93.53,-32.35 -4.48,-2.71 -10.78,-4.49 -12.47,-10.02 z"
         id="path211" />
      <path
         style="fill:#90745a;stroke:#90745a;stroke-width:0.30000001"
         inkscape:connector-curvature="0"
         d="m 874.4,250.47 c 1.18,-0.29 2.37,-0.55 3.5699,-0.79 38.55,8.55 76.48,19.54 114.5601,29.91 7.34,2.18 14.7599,4.08 22.1,6.29 13.13,3.76 26.24,7.55 39.35,11.38 4.5601,0.47 8.62,2.72 13.03,3.83 9.0599,2.58 18,5.61 27.15,7.9 -0.3301,2.03 -0.65,4.07 -1,6.1 -0.05,-0.54 -0.15,-1.62 -0.2001,-2.16 C 1037.64,297.85 982.3499,282.62 927.28,266.63 909.61,261.4 891.81,256.52 874.4,250.47 Z"
         id="path213" />
      <path
         style="fill:#97836d;stroke:#97836d;stroke-width:0.30000001"
         inkscape:connector-curvature="0"
         d="m 1161.62,275.63 c 4.37,-3.72 8.34,-8.1 13.49,-10.77 -0.67,2.73 -2.73,4.74 -4.4,6.89 -13.88,16.57 -28.97,32.07 -43.49,48.06 -0.99,-1.03 -1.89,-2.14 -2.78,-3.22 -0.7899,0.43 -1.58,0.86 -2.34,1.29 -0.61,-0.21 -1.85,-0.65 -2.46,-0.87 13.47,-14.28 27.6701,-27.91 41.98,-41.38 z"
         id="path215" />
      <path
         style="fill:#413121;stroke:#413121;stroke-width:0.30000001"
         inkscape:connector-curvature="0"
         d="m 1099.4,279.59 c 0.05,-0.53 0.15,-1.61 0.2,-2.15 2.77,2.73 6.9501,3.03 10.35,4.68 3.91,1.24 7.8301,2.64 11.29,4.92 -1.75,4.27 -4.41,8.21 -7.96,11.18 -2.0801,1.8 -4.76,2.65 -6.91,4.34 -3.64,-0.16 -7.29,-0.04 -10.9,-0.48 0.29,-2.46 -2.71,-2.99 -3.84,-4.7 -3.83,-4.92 -4.46,-11.49 -4.09,-17.51 3.94,-0.41 7.8999,-0.58 11.86,-0.28 z"
         id="path217" />
      <path
         style="fill:#423221;stroke:#423221;stroke-width:0.30000001"
         inkscape:connector-curvature="0"
         d="m 742.75,288.96 c 1.34,0.43 2.68,0.87 4.03,1.3 0.25,0.96 0.5,1.92 0.75,2.88 0.34,1.51 0.59,3.05 0.86,4.59 5.34,-0.15 10.71,0.09 15.97,1.12 -0.29,6.61 -3.46,13 -8.46,17.33 3.55,4.28 3.09,9.93 2.12,15.04 -6.47,-1.31 -12.93,-2.72 -19.38,-4.14 -0.32,-3.25 -0.06,-6.52 1.01,-9.62 -4.98,-3.33 -7.89,-8.93 -9.12,-14.66 2.96,-3.12 8.1,-3.52 12.22,-4.46 -0.08,-1.76 -0.18,-3.53 -0.16,-5.29 0.03,-1.36 0.08,-2.73 0.16,-4.09 z"
         id="path219" />
      <path
         style="fill:#3e3b36;stroke:#3e3b36;stroke-width:0.30000001"
         inkscape:connector-curvature="0"
         d="m 986.49,295.5 0.84,-0.47 c -3,3.84 -5.69,8.01 -9.48,11.13 2.73,-3.65 5.68,-7.2 8.64,-10.66 z"
         id="path221" />
      <path
         style="fill:#4b3722;stroke:#4b3722;stroke-width:0.30000001"
         inkscape:connector-curvature="0"
         d="m 992.71,295.06 c 5.0099,1.25 9.97,2.71 14.96,4.05 -2.89,4.38 -3.14,9.75 -4.06,14.76 -6.04,39.7 -9.68,79.71 -14.34,119.58 0.98,-0.08 2.93,-0.23 3.91,-0.31 -1.32,0.36 -2.62,0.78 -3.9,1.2 -1.2401,5.11 -1.11,10.44 -2.36,15.56 -0.53,1.47 0.06,2.93 0.49,4.35 -0.66,1.26 -1.12,2.6 -1.44,3.99 -0.45,3.45 -0.84,6.91 -1.53,10.32 l -0.26,-0.11 c -3.16,-1.83 -6.29,-3.79 -9.84,-4.78 l -0.58,-0.24 c 0.49,-0.17 1.49,-0.5 1.98,-0.67 0.98,-4.2 1.42,-8.48 1.92,-12.75 0.53,-5.14 1.8,-10.2 1.82,-15.39 3.82,-28.83 7.39,-57.71 10.57,-86.62 1.84,-14.95 3.51,-29.94 4.42,-44.97 0.3701,-2.21 -0.54,-4.2 -1.36,-6.17 -0.1,-0.45 -0.3,-1.35 -0.4,-1.8 z"
         id="path223" />
      <path
         style="fill:#9a9a9a;stroke:#9a9a9a;stroke-width:0.30000001"
         inkscape:connector-curvature="0"
         d="m 966.37,308.65 c 1.62,-3.09 3.92,-5.91 6.67,-8.06 -1.48,3.22 -4.04,5.78 -6.67,8.06 z"
         id="path225" />
      <path
         style="fill:#4b3722;stroke:#4b3722;stroke-width:0.30000001"
         inkscape:connector-curvature="0"
         d="m 1095.47,302.08 c 3.61,0.44 7.26,0.32 10.9,0.48 -0.3,3.4 -0.8199,6.77 -1.4,10.13 -0.25,1.23 -0.48,2.46 -0.71,3.69 -0.4,2.02 -0.76,4.05 -1.08,6.09 -0.5901,4.32 -1.3,8.62 -2.0901,12.91 -0.84,4.6 -1.48,9.22 -2.2899,13.82 -4.4701,25.24 -8.8101,50.5 -13.41,75.72 -0.08,0.75 -0.09,1.5 -0.03,2.26 -2.8199,9.25 -3.34,19.02 -5.67,28.4 -3.08,0.17 -7.47,3.44 -9.23,-0.45 1.5901,-9.18 2.9601,-18.39 4.37,-27.6 3.16,-21.24 6.75,-42.42 10.0901,-63.63 0.76,-4.46 1.5399,-8.91 2.0199,-13.41 2.1801,-10.18 3.42,-20.54 5.38,-30.77 0.28,-1.54 0.5701,-3.08 0.8401,-4.63 0.35,-2.03 0.6699,-4.07 1,-6.1 0.3299,-2.32 0.7199,-4.64 1.3099,-6.91 z"
         id="path227" />
      <path
         style="fill:#3e3b36;stroke:#3e3b36;stroke-width:0.30000001"
         inkscape:connector-curvature="0"
         d="m 965.97,318.25 c 3.46,-4.01 7.26,-7.88 11.33,-11.26 -3.42,4.07 -7.13,7.99 -11.33,11.26 z"
         id="path229" />
      <path
         style="fill:#413121;stroke:#413121;stroke-width:0.30000001"
         inkscape:connector-curvature="0"
         d="m 1185.91,307.92 c 3.33,-0.68 6.72,-0.83 10.12,-0.66 3.51,-0.2 6.8199,1.08 9.51,3.32 l 0.25,-0.46 c 2.5399,-0.18 4.7,1.53 6.88,2.62 -1.74,5.99 -6.0601,10.66 -11.12,14.07 -0.9,0.59 -1.79,1.17 -2.66,1.75 -1.85,-1.53 -3.87,-2.85 -6.09,-3.75 -6.07,-2.96 -6.81,-10.9 -6.89,-16.89 z"
         id="path231" />
      <path
         style="fill:#97897e;stroke:#97897e;stroke-width:0.30000001"
         inkscape:connector-curvature="0"
         d="m 1232.12,320.12 c 5.53,-4.45 10.87,-9.2 16.92,-12.96 -1.1801,3.19 -4.16,5.13 -6.3101,7.6 -13.6799,13.69 -25.4399,29.81 -31.64,48.3 -5.36,16.3 -6.75,34.33 -2.1799,50.97 -7.3401,-0.7 -14.9501,-2.17 -22.23,-0.63 l -0.08,-0.01 c -2.74,-0.62 -5.5499,-0.39 -8.2999,-0.1 -0.4301,1.95 -0.8601,3.9 -1.2201,5.87 0.2201,-1.94 0.39,-3.88 0.5901,-5.81 -18.61,1.59 -36.92,5.79 -54.7001,11.4 0.3101,0.17 0.9501,0.51 1.27,0.68 -4.66,0.18 -9.02,1.83 -13.3099,3.49 0.5299,-1.01 1.09,-2 1.6899,-2.98 23.6801,-23.45 48.98,-45.18 74.01,-67.17 0.3199,-1.28 0.6899,-2.56 1.09,-3.82 0.02,0.63 0.06,1.9 0.08,2.53 3.25,-2.59 6.6799,-5.04 9.5399,-8.09 0.8,-1.74 1.13,-3.65 1.5601,-5.51 -0.12,1.01 -0.35,3.03 -0.4601,4.03 2.14,-0.84 3.7401,-2.54 5.4801,-4 9.31,-8.04 18.68,-16 28.2,-23.79 z"
         id="path233" />
      <path
         style="fill:#97897e;stroke:#97897e;stroke-width:0.30000001"
         inkscape:connector-curvature="0"
         d="m 648.59,369.98 c -3.64,-20.33 0.9,-40.99 6.09,-60.63 28.01,5.77 55.98,11.76 83.96,17.73 6.45,1.42 12.91,2.83 19.38,4.14 23.12,5.02 46.25,10 69.28,15.38 5.89,1.57 12.06,2.34 17.66,4.85 -8.29,-0.41 -15.31,5.03 -20.36,11.05 -7.41,8.99 -12.56,19.58 -16.91,30.32 -4.03,9.92 -4.55,20.85 -3.73,31.41 5.1,0.31 10.21,-0.12 15.3,0.24 -5.06,0.25 -10.13,0.07 -15.19,0.43 0.52,5.1 1.33,10.16 2.45,15.17 0.41,2.08 0.9,4.16 1.41,6.24 1.11,4.67 2.39,9.3 3.45,13.99 -6.58,-5.46 -14.07,-9.69 -21.91,-13.07 -5.39,-2.51 -10.89,-4.79 -16.47,-6.85 -9.38,-3.18 -18.58,-7.19 -28.3,-9.13 -1.85,-0.85 -3.72,-1.65 -5.68,-2.17 -10.25,-2.83 -20.44,-5.89 -30.8,-8.3 -22.46,-4.97 -45.83,-3.54 -68.27,0.8 l 0.87,1.24 c -0.97,-0.53 -1.94,-1.05 -2.88,-1.59 4.15,-3.14 6.04,-8.17 7.43,-13.01 3.43,-12.41 4.07,-25.44 3.22,-38.24 z"
         id="path235" />
      <path
         style="fill:#a6a6a6;stroke:#a6a6a6;stroke-width:0.30000001"
         inkscape:connector-curvature="0"
         d="m 956.71,318.76 c 2.96,-2.96 5.24,-6.69 8.8,-8.97 -4.83,6.89 -10.76,13.08 -16.97,18.71 1.86,-3.9 5.57,-6.38 8.17,-9.74 z"
         id="path237" />
      <path
         style="fill:#8d7762;stroke:#8d7762;stroke-width:0.30000001"
         inkscape:connector-curvature="0"
         d="m 1104.97,312.69 c 4.97,1.15 9.7101,3.1 14.67,4.32 0.61,0.22 1.85,0.66 2.46,0.87 0.76,-0.43 1.55,-0.86 2.34,-1.29 0.89,1.08 1.79,2.19 2.78,3.22 2.05,1.28 5.8,0.94 6.61,3.61 -6.1899,-1.81 -12.5,-3.16 -18.75,-4.75 -3.58,-0.89 -7.09,-2.27 -10.8199,-2.29 0.2299,-1.23 0.4599,-2.46 0.7099,-3.69 z"
         id="path239" />
      <path
         style="fill:#cfbca0;stroke:#cfbca0;stroke-width:0.30000001"
         inkscape:connector-curvature="0"
         d="m 1104.26,316.38 c 3.73,0.02 7.24,1.4 10.8199,2.29 6.25,1.59 12.5601,2.94 18.75,4.75 l 0.17,0.05 c -3.6899,1.15 -7.6,1.22 -11.42,0.98 -3.12,-0.43 -6.22,-0.91 -9.33,-1.31 -3.34,-0.5 -6.7,-1.2 -10.0699,-0.67 0.32,-2.04 0.68,-4.07 1.08,-6.09 z"
         id="path241" />
      <path
         style="fill:#888888;stroke:#888888;stroke-width:0.30000001"
         inkscape:connector-curvature="0"
         d="m 952.51,329.47 c 4.27,-3.36 7.83,-7.59 12.44,-10.49 -1.25,2.38 -3.46,3.95 -5.4,5.7 -10.06,8.97 -20.51,17.48 -31.02,25.9 -7.92,6.4 -14.27,14.4 -21.58,21.45 -9.13,8.92 -17.72,18.45 -27.22,26.96 7.11,-8.23 15.31,-15.51 22.79,-23.42 4.81,-5.19 10.36,-9.77 14.58,-15.47 -3.87,1.53 -6.61,4.84 -10,7.13 -12.65,9.21 -24.99,18.86 -37.96,27.59 0.34,-1.76 2.07,-2.49 3.32,-3.49 12.19,-8.62 24.11,-17.63 36.07,-26.56 7.11,-5.63 14.6299,-10.79 21.15,-17.12 5.58,-5.51 10.6,-11.67 16.61,-16.71 -1.7,3.28 -5.7599,4.98 -6.52,8.73 -0.17,0.09 -0.49,0.26 -0.65,0.34 -0.18,0.1 -0.54,0.29 -0.72,0.38 0.18,-0.09 0.54,-0.28 0.72,-0.38 0.16,-0.08 0.48,-0.25 0.65,-0.34 4.69,-2.78 8.47,-6.83 12.74,-10.2 z"
         id="path243" />
      <path
         style="fill:#98816b;stroke:#98816b;stroke-width:0.30000001"
         inkscape:connector-curvature="0"
         d="m 1113.25,323.14 c 3.11,0.4 6.21,0.88 9.33,1.31 -7.86,8.31 -15.5399,16.81 -23.7799,24.75 0.8099,-4.6 1.45,-9.22 2.2899,-13.82 4.25,-3.87 8.11,-8.15 12.16,-12.24 z"
         id="path245" />
      <path
         style="fill:#4a3723;stroke:#4a3723;stroke-width:0.30000001"
         inkscape:connector-curvature="0"
         d="m 1192.8,324.81 c 2.22,0.9 4.24,2.22 6.09,3.75 0.87,-0.58 1.76,-1.16 2.66,-1.75 -0.42,5.75 -1.7301,11.39 -2.65,17.07 -0.4301,1.86 -0.76,3.77 -1.5601,5.51 -2.86,3.05 -6.2899,5.5 -9.5399,8.09 -0.02,-0.63 -0.06,-1.9 -0.08,-2.53 1.5401,-10.07 3.5401,-20.07 5.0801,-30.14 z"
         id="path247" />
      <path
         style="fill:#fdfcf7;stroke:#fdfcf7;stroke-width:0.30000001"
         inkscape:connector-curvature="0"
         d="m 939.12,340.01 c 0.16,-0.08 0.48,-0.25 0.65,-0.34 -0.17,0.09 -0.49,0.26 -0.65,0.34 z"
         id="path249" />
      <path
         style="fill:#fdfcf7;stroke:#fdfcf7;stroke-width:0.30000001"
         inkscape:connector-curvature="0"
         d="m 938.4,340.39 c 0.18,-0.09 0.54,-0.28 0.72,-0.38 -0.18,0.1 -0.54,0.29 -0.72,0.38 z"
         id="path251" />
      <path
         style="fill:#99826a;stroke:#99826a;stroke-width:0.30000001"
         inkscape:connector-curvature="0"
         d="m 1063.23,374.73 c 7.96,-8.02 15.41,-16.55 23.71,-24.24 -0.48,4.5 -1.2599,8.95 -2.0199,13.41 -21.9401,22.53 -43.9301,45.01 -66.39,67.01 -7.69,7.12 -15.0601,14.59 -23.14,21.26 -2.99,2.25 -6.14,4.28 -9.42,6.07 0.32,-1.39 0.78,-2.73 1.44,-3.99 6.92,-7.43 14.17,-14.56 20.86,-22.21 l -1.2,0.03 c 0.43,-0.16 1.3,-0.49 1.74,-0.65 -0.29,-2.21 -0.65,-4.39 -1.02,-6.57 0.16,-0.59 0.34,-1.17 0.53,-1.75 0.02,2.65 0.2,5.29 0.53,7.93 2.97,-2.07 5.21,-4.96 7.71,-7.54 15.5499,-16.26 30.9699,-32.64 46.6699,-48.76 z"
         id="path253" />
      <path
         style="fill:#2a1811;stroke:#2a1811;stroke-width:0.30000001"
         inkscape:connector-curvature="0"
         d="m 684.9399,451.19 c 0.3901,-0.73 1.1801,-2.21 1.5701,-2.94 -15.24,-8.45 -30.4299,-17.01 -45.6899,-25.43 -0.9701,-0.53 -1.9401,-1.05 -2.8801,-1.59 -21.65,-12.38 -43.65,-24.18 -65.03,-37.03 -0.9,-0.41 -2.59,-1.81 -3.24,-0.34 0.14,1.48 0.59,2.91 0.97,4.36 3.13,1.97 6.57,3.48 9.46,5.82 0.002,0.0267 0.006,0.0532 0.008,0.0798 0.1649,0.0769 0.3231,0.1614 0.4742,0.2535 -0.01,-0.098 -0.024,-0.1954 -0.0326,-0.2934 12.97,7.29 25.75,14.91 38.71,22.21 0.017,0.0905 0.04,0.2087 0.0649,0.3359 0.491,0.2419 0.9191,0.554 1.2842,0.9203 0.7275,0.0652 1.4211,0.3017 2.0709,0.7438 21.7299,12.51 43.52,24.93 65.47,37.05 0.1,-0.81 0.21,-1.62 0.3199,-2.43 -1.1899,-0.5799 -2.3599,-1.1499 -3.53,-1.7199 z"
         id="path255" />
      <path
         style="fill:#8d8d8d;stroke:#8d8d8d;stroke-width:0.30000001"
         inkscape:connector-curvature="0"
         d="m 845.39,410.51 c 7.96,-5.32 15.54,-11.19 23.55,-16.42 -0.4,1.8 -2.11,2.57 -3.41,3.59 -7.88,5.39 -15.44,11.28 -23.55,16.31 0.45,-1.74 2.11,-2.5 3.41,-3.48 z"
         id="path257" />
      <path
         style="fill:#4b3623;stroke:#4b3623;stroke-width:0.30000001"
         inkscape:connector-curvature="0"
         d="m 1178.3,413.29 c 2.75,-0.29 5.5599,-0.52 8.2999,0.1 -0.62,3.49 -1.2,7 -1.87,10.49 3.86,0.04 7.73,0.15 11.6,0.41 -3.97,0.37 -7.96,0.56 -11.9299,0.8 -0.5,2.82 -1.0601,5.64 -1.7001,8.43 -2.74,0.66 -5.5299,1.98 -8.3199,0.86 1.17,-3.3 1.74,-6.83 1.16,-10.31 0.1899,-0.13 0.5699,-0.4 0.76,-0.53 0.2799,-1.46 0.5199,-2.92 0.7799,-4.38 0.36,-1.97 0.7901,-3.92 1.2201,-5.87 z"
         id="path259" />
      <path
         style="fill:#502326;stroke:#502326;stroke-width:0.30000001"
         inkscape:connector-curvature="0"
         d="m 819.49,428.54 c 7.39,-4.6 14.33,-9.87 21.63,-14.6 -1.79,2.27 -4.48,3.54 -6.75,5.26 -4.92,3.22 -9.57,6.88 -14.69,9.78 0.26,2.66 0.62,5.31 0.73,7.99 -4.5,0.14 -8.99,0.2 -13.48,0.15 -0.1,0.74 -0.3,2.21 -0.41,2.95 -1.12,-5.01 -1.93,-10.07 -2.45,-15.17 5.06,-0.36 10.13,-0.18 15.19,-0.43 0.06,1.35 0.14,2.71 0.23,4.07 z"
         id="path261" />
      <path
         style="fill:#512326;stroke:#512326;stroke-width:0.30000001"
         inkscape:connector-curvature="0"
         d="m 850.15,428.21 c 3.31,-3.05 6.17,-6.6 9.8,-9.3 -10.87,11.14 -22.12,21.9 -33.09,32.94 1.36,2.3 2.88,4.61 3.3,7.31 0.66,2.77 1.07,5.61 1.05,8.46 -0.1,0.84 -0.29,2.53 -0.39,3.37 -0.37,2.62 -0.67,5.25 -0.93,7.89 -23.22,-2.32 -46.41,-5.4 -69.76,-6.17 -8.58,-1.14 -14.7,-8.5 -18.28,-15.86 -1.23,-3.12 -1.16,-6.54 -1,-9.83 0.34,-5.41 0.9301,-11.05 3.85,-15.77 9.72,1.94 18.92,5.95 28.3,9.13 -2.01,1.12 -4.43,1.88 -5.79,3.85 -0.23,2.6 2.59,3.54 4.7,3.6 5.85,0.31 11.76,0.32 17.56,-0.6 7.84,3.38 15.33,7.61 21.91,13.07 -1.06,-4.69 -2.34,-9.32 -3.45,-13.99 4.59,0.68 9.27,0.83 13.8,1.95 1.73,1.04 3.36,2.25 5.07,3.36 7.51,-8.07 15.63,-15.54 23.35,-23.41 z"
         id="path263" />
      <path
         style="fill:#afaeaa;stroke:#afaeaa;stroke-width:0.30000001"
         inkscape:connector-curvature="0"
         d="m 1220.23,422.29 c 0.51,0.55 0.51,0.55 0,0 z"
         id="path265" />
      <path
         style="fill:#3e2015;stroke:#3e2015;stroke-width:0.30000001"
         inkscape:connector-curvature="0"
         d="m 1124.24,425.43 c 17.09,-0.75 34.1901,-1.05 51.3,-1.36 0.58,3.48 0.01,7.01 -1.16,10.31 -0.35,0.61 -0.6801,1.21 -1,1.82 -8.13,1.17 -16.03,3.48 -24.0601,5.16 -19.5199,4.06 -38.9099,8.75 -58.5599,12.24 -3.65,0.88 -7.3,1.88 -11.0701,1.98 2.3301,-9.38 2.8501,-19.15 5.67,-28.4 9.0701,-0.63 18.17,-1.03 27.26,-1.24 -0.6,0.98 -1.16,1.97 -1.6899,2.98 4.29,-1.66 8.65,-3.31 13.31,-3.49 z"
         id="path267" />
      <path
         style="fill:#3d2016;stroke:#3d2016;stroke-width:0.30000001"
         inkscape:connector-curvature="0"
         d="m 1196.33,424.29 c 6,0.03 12.2101,-0.23 18.02,1.5 0.03,0.47 0.08,1.42 0.11,1.89 -5.2899,-1.09 -10.24,1.71 -15.35,2.51 -5.51,0.94 -10.8199,2.99 -16.41,3.33 0.64,-2.79 1.2001,-5.61 1.7001,-8.43 3.9699,-0.24 7.9599,-0.43 11.9299,-0.8 z"
         id="path269" />
      <path
         style="fill:#3e2015;stroke:#3e2015;stroke-width:0.30000001"
         inkscape:connector-curvature="0"
         d="m 1018.53,430.91 c 18.77,-1.07 37.52,-2.36 56.2999,-3.38 -1.4099,9.21 -2.7799,18.42 -4.37,27.6 -0.6899,1.3 -0.8999,3.45 -2.76,3.4 -11.4099,1.53 -22.6799,3.99 -34.0399,5.83 -3.85,-1.28 -7.9401,-0.38 -11.89,-0.88 -4.03,-0.31 -7.63,-2.27 -11.17,-4.04 -3.02,-1.53 -4.99,-4.52 -8.06,-5.98 -2.23,-1.08 -4.7599,-1 -7.15,-1.29 8.08,-6.67 15.45,-14.14 23.14,-21.26 z"
         id="path271" />
      <path
         style="fill:#512326;stroke:#512326;stroke-width:0.30000001"
         inkscape:connector-curvature="0"
         d="m 1199.11,430.19 c 5.11,-0.8 10.0601,-3.6 15.35,-2.51 -1.49,4.16 -2.8999,8.35 -4.27,12.55 -1.11,2.51 -2.33,4.99 -2.97,7.68 0.4501,0.16 1.36,0.5 1.8101,0.67 -0.88,0.24 -1.75,0.48 -2.5901,0.73 -0.21,0.61 -0.6299,1.82 -0.84,2.43 l -0.26,0.07 c -10.39,3.02 -20.5499,6.74 -30.97,9.65 -49.8099,14.03 -101.15,22.26 -152.69,26.45 -0.55,-2.05 -0.72,-4.18 -0.21,-6.24 1.16,-5.4 1.63,-10.91 2.76,-16.31 3.16,0.01 6.35,-0.19 9.4301,-1 11.36,-1.84 22.63,-4.3 34.0399,-5.83 1.8601,0.05 2.0701,-2.1 2.76,-3.4 1.76,3.89 6.15,0.62 9.23,0.45 3.77,-0.1 7.42,-1.1 11.0701,-1.98 19.65,-3.49 39.04,-8.18 58.5599,-12.24 8.03,-1.68 15.9301,-3.99 24.0601,-5.16 0.3199,-0.61 0.65,-1.21 1,-1.82 2.79,1.12 5.58,-0.2 8.3199,-0.86 5.59,-0.34 10.9,-2.39 16.41,-3.33 z"
         id="path273" />
      <path
         style="fill:#3d2015;stroke:#3d2015;stroke-width:0.30000001"
         inkscape:connector-curvature="0"
         d="m 993.18,433.14 c 4.61,-0.55 9.24,-0.86 13.89,-1.07 l 1.2,-0.03 c -6.69,7.65 -13.94,14.78 -20.86,22.21 -0.43,-1.42 -1.02,-2.88 -0.49,-4.35 1.25,-5.12 1.12,-10.45 2.36,-15.56 1.28,-0.42 2.58,-0.84 3.9,-1.2 z"
         id="path275" />
      <path
         style="fill:#421c1e;stroke:#421c1e;stroke-width:0.30000001"
         inkscape:connector-curvature="0"
         d="m 964.41,436.55 c 4.97,-0.98 10.02,-1.51 15.07,-1.93 -0.02,5.19 -1.29,10.25 -1.82,15.39 -0.5,4.27 -0.94,8.55 -1.92,12.75 -0.49,0.17 -1.49,0.5 -1.98,0.67 -5.29,-2.7 -10.63,-5.35 -15.72,-8.41 -0.34,-1.42 -0.67,-2.82 -0.93,-4.24 -0.64,-5.48 1.32,-12.6 7.3,-14.23 z"
         id="path277" />
      <path
         style="fill:#2b1710;stroke:#2b1710;stroke-width:0.30000001"
         inkscape:connector-curvature="0"
         d="m 1210.1899,440.23 c 10.8601,-2.14 21.88,-3.22 32.8401,-4.58 2.1699,0.52 4.5399,0.6 6.5699,1.69 0.85,2.15 -2.2,2.76 -3.6,3.53 -11.95,4.04 -24.54,5.86 -36.97,7.71 -0.4501,-0.17 -1.36,-0.51 -1.8101,-0.67 0.6402,-2.69 1.8602,-5.17 2.9701,-7.68 z"
         id="path279" />
      <path
         style="fill:#2e160f;stroke:#2e160f;stroke-width:0.30000001"
         inkscape:connector-curvature="0"
         d="m 806.93,437.12 c 4.49,0.05 8.98,-0.01 13.48,-0.15 0.26,3.78 1.08,7.5 1.32,11.29 -4.53,-1.12 -9.21,-1.27 -13.8,-1.95 -0.51,-2.08 -1,-4.16 -1.41,-6.24 0.11,-0.74 0.31,-2.21 0.41,-2.95 z"
         id="path281" />
      <path
         style="fill:#2f160f;stroke:#2f160f;stroke-width:0.30000001"
         inkscape:connector-curvature="0"
         d="m 767.21,444.23 c 1.36,-1.97 3.78,-2.73 5.79,-3.85 5.58,2.06 11.08,4.34 16.47,6.85 -5.8,0.92 -11.71,0.91 -17.56,0.6 -2.11,-0.06 -4.93,-1 -4.7,-3.6 z"
         id="path283" />
      <path
         style="fill:#2e170f;stroke:#2e170f;stroke-width:0.30000001"
         inkscape:connector-curvature="0"
         d="m 686.51,448.25 c 5.25,2.87 10.44,5.86 15.69,8.74 2.01,1.3 4.48,0.83 6.75,0.86 10.97,-0.39 21.94,-0.56 32.9,-1 3.58,7.36 9.7,14.72 18.28,15.86 23.35,0.77 46.54,3.85 69.76,6.17 17.42,1.26 34.78,3.11 52.2,4.4 37.25,2.65 74.53,5.43 111.9,5.42 8.48,-0.08 16.98,0.12 25.45,-0.62 0.56,-0.05 1.68,-0.13 2.24,-0.17 51.54,-4.19 102.8801,-12.42 152.69,-26.45 10.42,-2.91 20.58,-6.63 30.97,-9.65 -10.3199,30.73 -21.09,61.33 -33.22,91.39 -2.64,7.44 -10.47,10.88 -17.14,13.91 -18.36,7.45 -38.01,11.02 -57.48,14.22 -32.6,4.99 -65.55,7.49 -98.51,8.41 -27.97,0.86 -55.99,0.24 -83.92,-1.58 -33.06,-2.56 -66.27,-6.55 -98.1,-16.24 -15.3799,-4.91 -30.84,-11.03 -43.34,-21.52 -6.1,-5.04 -10.52,-11.7401 -14.24,-18.64 -5.48,-10.29 -9.53,-21.3 -12.49,-32.56 -15.71,-2.02 -32.42,-6.48 -43.41,-18.65 -3.15,-3.04 -4.94,-7.07 -7.26,-10.69 -2.58,-1.71 -5.42,-2.95 -8.08,-4.52 0.1,-0.81 0.21,-1.62 0.3199,-2.43 -1.1899,-0.58 -2.36,-1.15 -3.53,-1.72 0.3901,-0.73 1.1801,-2.21 1.5701,-2.94 z"
         id="path285" />
      <path
         style="fill:#6a4444;stroke:#6a4444;stroke-width:0.30000001"
         inkscape:connector-curvature="0"
         d="m 957.11,450.78 c 0.26,1.42 0.59,2.82 0.93,4.24 5.09,3.06 10.43,5.71 15.72,8.41 l 0.58,0.24 c -11.48,0.98 -23.01,0.59 -34.51,1.05 -18.44,0.8 -36.9,0.6 -55.33,1.56 -17.77,0.37 -35.54,0.67 -53.29,1.34 0.02,-2.85 -0.39,-5.69 -1.05,-8.46 0.48,1.8 2.36,1.28 3.78,1.31 41.08,-1.83 82.17,-3.45 123.25,-5.33 -0.05,-1.46 -0.08,-2.91 -0.08,-4.36 z"
         id="path287" />
      <path
         style="fill:#431c1f;stroke:#431c1f;stroke-width:0.30000001"
         inkscape:connector-curvature="0"
         d="m 985.97,458.24 c 3.28,-1.79 6.4301,-3.82 9.42,-6.07 2.39,0.29 4.92,0.21 7.15,1.29 3.07,1.46 5.04,4.45 8.06,5.98 3.54,1.77 7.14,3.73 11.17,4.04 3.95,0.5 8.04,-0.4 11.89,0.88 -3.0801,0.81 -6.27,1.01 -9.4301,1 -1.13,5.4 -1.6,10.91 -2.76,16.31 -0.5099,2.06 -0.34,4.19 0.21,6.24 -0.56,0.04 -1.68,0.12 -2.24,0.17 -6,-4.53 -13.15,-7.11 -19.58,-10.91 -5.06,-3.02 -10.73,-4.99 -15.42,-8.61 0.6901,-3.41 1.0801,-6.87 1.5301,-10.32 z"
         id="path289" />
      <path
         style="fill:#c29162;stroke:#c29162;stroke-width:0.30000001"
         inkscape:connector-curvature="0"
         d="m 939.83,464.72 c 11.5,-0.46 23.03,-0.07 34.51,-1.05 3.55,0.99 6.68,2.95 9.84,4.78 -15.7,1.18 -31.46,0.77 -47.17,1.77 -35.31,0.89 -70.63,2.14 -105.95,2.9 -0.06,-0.54 -0.18,-1.6 -0.24,-2.13 0.1,-0.84 0.29,-2.53 0.39,-3.37 17.75,-0.67 35.52,-0.97 53.29,-1.34 18.43,-0.96 36.89,-0.76 55.33,-1.56 z"
         id="path291" />
      <path
         style="fill:#6b4445;stroke:#6b4445;stroke-width:0.30000001"
         inkscape:connector-curvature="0"
         d="m 984.18,468.45 0.26,0.11 c 4.69,3.62 10.36,5.59 15.42,8.61 6.43,3.8 13.58,6.38 19.58,10.91 -8.47,0.74 -16.97,0.54 -25.45,0.62 -37.37,0.01 -74.65,-2.77 -111.9,-5.42 -17.42,-1.29 -34.78,-3.14 -52.2,-4.4 0.26,-2.64 0.56,-5.27 0.93,-7.89 0.06,0.53 0.18,1.59 0.24,2.13 35.32,-0.76 70.64,-2.01 105.95,-2.9 15.71,-1 31.47,-0.59 47.17,-1.77 z"
         id="path293" />
    </g>
  </g>
</svg>
